<svg width="176" height="174" xmlns="http://www.w3.org/2000/svg" xmlns:xlink="http://www.w3.org/1999/xlink" xml:space="preserve" overflow="hidden"><g transform="translate(-364 -164)"><g><g><g><g><path d="M410.312 216.562 410.312 262.781C410.313 263.743 410.695 264.664 411.375 265.344L416.966 270.938 410.468 277.437C409.789 278.117 409.406 279.039 409.406 280L409.406 304.469C409.418 314.974 417.932 323.488 428.438 323.5L506.375 323.5C516.385 323.51 524.508 315.403 524.518 305.393 524.527 296.767 518.454 289.329 510 287.612L510 239.219C510 238.036 509.423 236.927 508.454 236.248L502.621 232.166 509.161 224.32C510.147 223.136 510.277 221.457 509.483 220.135L505.496 213.499 508.931 210.056C509.611 209.379 509.996 208.46 510 207.5L510 199.344C509.988 188.838 501.474 180.324 490.969 180.312L398.531 180.312C388.069 180.28 379.555 188.724 379.5 199.186 379.495 204.925 382.12 210.35 386.623 213.907 386.688 213.96 386.755 214.01 386.826 214.058 389.117 215.674 391.847 216.554 394.651 216.579ZM405.908 209.312C406.415 208.092 406.679 206.784 406.688 205.463 406.73 199.54 401.963 194.704 396.04 194.661 395.964 194.661 395.888 194.661 395.812 194.662 393.81 194.662 392.188 196.285 392.188 198.287 392.188 200.289 393.81 201.912 395.812 201.912 397.75 201.849 399.373 203.369 399.436 205.307 399.438 205.359 399.438 205.411 399.438 205.463 399.346 206.867 398.489 208.107 397.208 208.689 395.213 209.666 392.842 209.461 391.046 208.154 388.33 205.969 386.751 202.672 386.75 199.186 386.793 192.679 392.104 187.44 398.61 187.484 405.117 187.527 410.356 192.837 410.312 199.344L410.312 209.312ZM433.875 287.268C431.593 287.163 429.324 287.659 427.294 288.705 423.623 290.534 421.27 294.249 421.188 298.35 421.145 304.273 425.912 309.109 431.835 309.151 431.911 309.152 431.987 309.152 432.062 309.15 434.065 309.15 435.688 307.528 435.688 305.525 435.688 303.523 434.065 301.9 432.062 301.9 430.125 301.964 428.502 300.444 428.439 298.506 428.438 298.454 428.437 298.402 428.438 298.35 428.529 296.945 429.386 295.706 430.667 295.124 432.663 294.149 435.035 294.358 436.829 295.667 439.543 297.85 441.122 301.144 441.125 304.626 441.074 311.086 435.804 316.286 429.344 316.25L428.438 316.25C421.934 316.242 416.664 310.972 416.656 304.469L416.656 281.503 424.657 273.5C426.072 272.085 426.072 269.79 424.657 268.375L417.562 261.279 417.562 199.344C417.567 195.067 416.124 190.915 413.468 187.562L490.969 187.562C497.472 187.57 502.742 192.84 502.75 199.344L502.75 205.997 498.375 210.375C497.199 211.551 496.975 213.377 497.831 214.803L501.943 221.657 494.527 230.555C493.245 232.093 493.453 234.379 494.991 235.66 495.069 235.726 495.15 235.787 495.234 235.846L502.75 241.107 502.75 287.25ZM506.375 316.25 444.306 316.25C449.297 309.984 449.735 301.232 445.393 294.5L506.375 294.5C512.381 294.5 517.25 299.369 517.25 305.375 517.25 311.381 512.381 316.25 506.375 316.25Z" stroke="#000000" stroke-width="1.81249" stroke-linecap="butt" stroke-linejoin="miter" stroke-miterlimit="4" stroke-opacity="1" fill="#000000" fill-rule="nonzero" fill-opacity="1"/><path d="M453.812 209.312 484.625 209.312 484.625 216.562 453.812 216.562Z" stroke="#000000" stroke-width="1.81249" stroke-linecap="butt" stroke-linejoin="miter" stroke-miterlimit="4" stroke-opacity="1" fill="#000000" fill-rule="nonzero" fill-opacity="1"/><path d="M435.688 209.312 446.562 209.312 446.562 216.562 435.688 216.562Z" stroke="#000000" stroke-width="1.81249" stroke-linecap="butt" stroke-linejoin="miter" stroke-miterlimit="4" stroke-opacity="1" fill="#000000" fill-rule="nonzero" fill-opacity="1"/><path d="M453.812 263.688 484.625 263.688 484.625 270.938 453.812 270.938Z" stroke="#000000" stroke-width="1.81249" stroke-linecap="butt" stroke-linejoin="miter" stroke-miterlimit="4" stroke-opacity="1" fill="#000000" fill-rule="nonzero" fill-opacity="1"/><path d="M435.688 263.688 446.562 263.688 446.562 270.938 435.688 270.938Z" stroke="#000000" stroke-width="1.81249" stroke-linecap="butt" stroke-linejoin="miter" stroke-miterlimit="4" stroke-opacity="1" fill="#000000" fill-rule="nonzero" fill-opacity="1"/><path d="M435.688 227.438 466.5 227.438 466.5 234.688 435.688 234.688Z" stroke="#000000" stroke-width="1.81249" stroke-linecap="butt" stroke-linejoin="miter" stroke-miterlimit="4" stroke-opacity="1" fill="#000000" fill-rule="nonzero" fill-opacity="1"/><path d="M473.75 227.438 484.625 227.438 484.625 234.688 473.75 234.688Z" stroke="#000000" stroke-width="1.81249" stroke-linecap="butt" stroke-linejoin="miter" stroke-miterlimit="4" stroke-opacity="1" fill="#000000" fill-rule="nonzero" fill-opacity="1"/><path d="M435.688 245.562 484.625 245.562 484.625 252.812 435.688 252.812Z" stroke="#000000" stroke-width="1.81249" stroke-linecap="butt" stroke-linejoin="miter" stroke-miterlimit="4" stroke-opacity="1" fill="#000000" fill-rule="nonzero" fill-opacity="1"/></g></g></g></g></g></svg>